G04 #@! TF.GenerationSoftware,KiCad,Pcbnew,7.0.1*
G04 #@! TF.CreationDate,2023-04-11T18:09:49-04:00*
G04 #@! TF.ProjectId,pikas-pcbs,70696b61-732d-4706-9362-732e6b696361,rev?*
G04 #@! TF.SameCoordinates,Original*
G04 #@! TF.FileFunction,Copper,L2,Bot*
G04 #@! TF.FilePolarity,Positive*
%FSLAX46Y46*%
G04 Gerber Fmt 4.6, Leading zero omitted, Abs format (unit mm)*
G04 Created by KiCad (PCBNEW 7.0.1) date 2023-04-11 18:09:49*
%MOMM*%
%LPD*%
G01*
G04 APERTURE LIST*
G04 Aperture macros list*
%AMRoundRect*
0 Rectangle with rounded corners*
0 $1 Rounding radius*
0 $2 $3 $4 $5 $6 $7 $8 $9 X,Y pos of 4 corners*
0 Add a 4 corners polygon primitive as box body*
4,1,4,$2,$3,$4,$5,$6,$7,$8,$9,$2,$3,0*
0 Add four circle primitives for the rounded corners*
1,1,$1+$1,$2,$3*
1,1,$1+$1,$4,$5*
1,1,$1+$1,$6,$7*
1,1,$1+$1,$8,$9*
0 Add four rect primitives between the rounded corners*
20,1,$1+$1,$2,$3,$4,$5,0*
20,1,$1+$1,$4,$5,$6,$7,0*
20,1,$1+$1,$6,$7,$8,$9,0*
20,1,$1+$1,$8,$9,$2,$3,0*%
%AMHorizOval*
0 Thick line with rounded ends*
0 $1 width*
0 $2 $3 position (X,Y) of the first rounded end (center of the circle)*
0 $4 $5 position (X,Y) of the second rounded end (center of the circle)*
0 Add line between two ends*
20,1,$1,$2,$3,$4,$5,0*
0 Add two circle primitives to create the rounded ends*
1,1,$1,$2,$3*
1,1,$1,$4,$5*%
%AMRotRect*
0 Rectangle, with rotation*
0 The origin of the aperture is its center*
0 $1 length*
0 $2 width*
0 $3 Rotation angle, in degrees counterclockwise*
0 Add horizontal line*
21,1,$1,$2,0,0,$3*%
G04 Aperture macros list end*
G04 #@! TA.AperFunction,ComponentPad*
%ADD10HorizOval,2.250000X0.655001X0.730000X-0.655001X-0.730000X0*%
G04 #@! TD*
G04 #@! TA.AperFunction,ComponentPad*
%ADD11C,2.250000*%
G04 #@! TD*
G04 #@! TA.AperFunction,ComponentPad*
%ADD12HorizOval,2.250000X0.020000X0.290000X-0.020000X-0.290000X0*%
G04 #@! TD*
G04 #@! TA.AperFunction,ComponentPad*
%ADD13C,1.905000*%
G04 #@! TD*
G04 #@! TA.AperFunction,ComponentPad*
%ADD14R,1.905000X1.905000*%
G04 #@! TD*
G04 #@! TA.AperFunction,ComponentPad*
%ADD15HorizOval,2.250000X0.655001X0.730000X-0.655001X-0.730000X0*%
G04 #@! TD*
G04 #@! TA.AperFunction,SMDPad,CuDef*
%ADD16RoundRect,0.243750X0.456250X-0.243750X0.456250X0.243750X-0.456250X0.243750X-0.456250X-0.243750X0*%
G04 #@! TD*
G04 #@! TA.AperFunction,SMDPad,CuDef*
%ADD17RoundRect,0.243750X-0.456250X0.243750X-0.456250X-0.243750X0.456250X-0.243750X0.456250X0.243750X0*%
G04 #@! TD*
G04 #@! TA.AperFunction,SMDPad,CuDef*
%ADD18R,1.200000X0.900000*%
G04 #@! TD*
G04 #@! TA.AperFunction,SMDPad,CuDef*
%ADD19RoundRect,0.250000X-0.625000X0.375000X-0.625000X-0.375000X0.625000X-0.375000X0.625000X0.375000X0*%
G04 #@! TD*
G04 #@! TA.AperFunction,SMDPad,CuDef*
%ADD20R,1.800000X1.100000*%
G04 #@! TD*
G04 #@! TA.AperFunction,SMDPad,CuDef*
%ADD21RotRect,1.500000X0.550000X315.000000*%
G04 #@! TD*
G04 #@! TA.AperFunction,SMDPad,CuDef*
%ADD22RotRect,1.500000X0.550000X45.000000*%
G04 #@! TD*
G04 #@! TA.AperFunction,ComponentPad*
%ADD23O,1.700000X2.700000*%
G04 #@! TD*
G04 #@! TA.AperFunction,SMDPad,CuDef*
%ADD24R,0.500000X2.250000*%
G04 #@! TD*
G04 #@! TA.AperFunction,SMDPad,CuDef*
%ADD25R,1.400000X1.200000*%
G04 #@! TD*
G04 #@! TA.AperFunction,ViaPad*
%ADD26C,0.800000*%
G04 #@! TD*
G04 #@! TA.AperFunction,Conductor*
%ADD27C,0.254000*%
G04 #@! TD*
G04 #@! TA.AperFunction,Conductor*
%ADD28C,0.381000*%
G04 #@! TD*
G04 #@! TA.AperFunction,Conductor*
%ADD29C,0.200000*%
G04 #@! TD*
G04 APERTURE END LIST*
D10*
X102636001Y-50451000D03*
D11*
X103291000Y-49721000D03*
D12*
X108311000Y-48931000D03*
D11*
X108331000Y-48641000D03*
D13*
X104521000Y-58801000D03*
D14*
X107061000Y-58801000D03*
D15*
X83673001Y-69501000D03*
D11*
X84328000Y-68771000D03*
D12*
X89348000Y-67981000D03*
D11*
X89368000Y-67691000D03*
D13*
X85558000Y-77851000D03*
D14*
X88098000Y-77851000D03*
D10*
X102636001Y-69501000D03*
D11*
X103291000Y-68771000D03*
D12*
X108311000Y-67981000D03*
D11*
X108331000Y-67691000D03*
D13*
X104521000Y-77851000D03*
D14*
X107061000Y-77851000D03*
D10*
X83661002Y-50526001D03*
D11*
X84316001Y-49796001D03*
D12*
X89336001Y-49006001D03*
D11*
X89356001Y-48716001D03*
D13*
X85546001Y-58876001D03*
D14*
X88086001Y-58876001D03*
D16*
X116363750Y-82471500D03*
X116363750Y-80596500D03*
D17*
X107346750Y-80645000D03*
X107346750Y-82520000D03*
X118268750Y-66531250D03*
X118268750Y-68406250D03*
X77755750Y-64183500D03*
X77755750Y-62308500D03*
X118268750Y-54625000D03*
X118268750Y-56500000D03*
X118268750Y-43800000D03*
X118268750Y-45675000D03*
X118268750Y-71293750D03*
X118268750Y-73168750D03*
D18*
X94996000Y-53847000D03*
X94996000Y-50547000D03*
X114173000Y-53592000D03*
X114173000Y-50292000D03*
X95123000Y-76199000D03*
X95123000Y-72899000D03*
X114300000Y-76072000D03*
X114300000Y-72772000D03*
D19*
X118268750Y-60325000D03*
X118268750Y-63125000D03*
D16*
X96170750Y-48641000D03*
X96170750Y-46766000D03*
D17*
X118268750Y-49068750D03*
X118268750Y-50943750D03*
X118268750Y-75406250D03*
X118268750Y-77281250D03*
D20*
X99143750Y-79906250D03*
X92943750Y-83606250D03*
X99143750Y-83606250D03*
X92943750Y-79906250D03*
D21*
X98103082Y-69977936D03*
X98668767Y-69412250D03*
X99234452Y-68846565D03*
X99800138Y-68280880D03*
X100365823Y-67715194D03*
X100931509Y-67149509D03*
X101497194Y-66583823D03*
X102062880Y-66018138D03*
X102628565Y-65452452D03*
X103194250Y-64886767D03*
X103759936Y-64321082D03*
D22*
X103759936Y-61916918D03*
X103194250Y-61351233D03*
X102628565Y-60785548D03*
X102062880Y-60219862D03*
X101497194Y-59654177D03*
X100931509Y-59088491D03*
X100365823Y-58522806D03*
X99800138Y-57957120D03*
X99234452Y-57391435D03*
X98668767Y-56825750D03*
X98103082Y-56260064D03*
D21*
X95698918Y-56260064D03*
X95133233Y-56825750D03*
X94567548Y-57391435D03*
X94001862Y-57957120D03*
X93436177Y-58522806D03*
X92870491Y-59088491D03*
X92304806Y-59654177D03*
X91739120Y-60219862D03*
X91173435Y-60785548D03*
X90607750Y-61351233D03*
X90042064Y-61916918D03*
D22*
X90042064Y-64321082D03*
X90607750Y-64886767D03*
X91173435Y-65452452D03*
X91739120Y-66018138D03*
X92304806Y-66583823D03*
X92870491Y-67149509D03*
X93436177Y-67715194D03*
X94001862Y-68280880D03*
X94567548Y-68846565D03*
X95133233Y-69412250D03*
X95698918Y-69977936D03*
D23*
X93981250Y-44187500D03*
X101281250Y-44187500D03*
X93981250Y-39687500D03*
X101281250Y-39687500D03*
D24*
X96031250Y-44187500D03*
X96831250Y-44187500D03*
X97631250Y-44187500D03*
X98431250Y-44187500D03*
X99231250Y-44187500D03*
D25*
X112712500Y-82440250D03*
X110512500Y-82440250D03*
X110512500Y-80740250D03*
X112712500Y-80740250D03*
D16*
X99250500Y-48611000D03*
X99250500Y-46736000D03*
D26*
X118903750Y-79692500D03*
X109272635Y-44397635D03*
X114862500Y-45581250D03*
X115947500Y-46675000D03*
X116363750Y-82471500D03*
X118268750Y-60325000D03*
X118268750Y-54625000D03*
X118268750Y-47081250D03*
X116518750Y-69331250D03*
X119987500Y-47518750D03*
X119956250Y-45175000D03*
X115862500Y-43175000D03*
X116643750Y-51050000D03*
X111987500Y-49550000D03*
X94463250Y-63293000D03*
X95366764Y-66901836D03*
X98268750Y-50198500D03*
X98330750Y-46548128D03*
X96427924Y-57437452D03*
X95487500Y-68050000D03*
X95393750Y-52143750D03*
X117206250Y-52456250D03*
X105302249Y-63895999D03*
X104103750Y-62841269D03*
X118300000Y-65300000D03*
X116268750Y-83893750D03*
X96043750Y-60642500D03*
X103663750Y-66992500D03*
X94143750Y-81393750D03*
X90963750Y-70802500D03*
X107346750Y-80645000D03*
X98428366Y-74612500D03*
D27*
X118186320Y-79692500D02*
X118903750Y-79692500D01*
X117526750Y-82815662D02*
X117526750Y-80352070D01*
X116448662Y-83893750D02*
X117526750Y-82815662D01*
X117526750Y-80352070D02*
X118186320Y-79692500D01*
X116268750Y-83893750D02*
X116448662Y-83893750D01*
D28*
X107175000Y-42300000D02*
X109272635Y-44397635D01*
X96412750Y-42300000D02*
X107175000Y-42300000D01*
X117268750Y-46675000D02*
X118268750Y-45675000D01*
X115862500Y-44581250D02*
X114862500Y-45581250D01*
X115947500Y-46675000D02*
X117268750Y-46675000D01*
X115862500Y-43175000D02*
X115862500Y-44581250D01*
D27*
X117737500Y-43800000D02*
X118268750Y-43800000D01*
X111987500Y-49550000D02*
X117737500Y-43800000D01*
D28*
X118268750Y-47081250D02*
X118268750Y-49068750D01*
X118268750Y-71293750D02*
X118268750Y-71081250D01*
X118268750Y-71081250D02*
X116518750Y-69331250D01*
X110432750Y-82520000D02*
X110512500Y-82440250D01*
X107346750Y-82520000D02*
X110432750Y-82520000D01*
X116406714Y-80740250D02*
X112712500Y-80740250D01*
X117979732Y-79167232D02*
X116406714Y-80740250D01*
X117979732Y-79167232D02*
X116550465Y-80596500D01*
X119534250Y-77612715D02*
X117979732Y-79167232D01*
X116550465Y-80596500D02*
X116363750Y-80596500D01*
X119987500Y-54518750D02*
X119534250Y-54065500D01*
X119987500Y-54518750D02*
X119987500Y-54781250D01*
X119987500Y-47518750D02*
X119987500Y-54518750D01*
X119534250Y-54065500D02*
X119534250Y-77612715D01*
X119987500Y-73687500D02*
X118268750Y-75406250D01*
X119987500Y-71450000D02*
X119987500Y-73687500D01*
X119987500Y-71450000D02*
X118268750Y-73168750D01*
X119987500Y-66409465D02*
X119987500Y-71450000D01*
X119987500Y-66409465D02*
X118268750Y-68128215D01*
X118268750Y-68128215D02*
X118268750Y-68406250D01*
X119987500Y-54781250D02*
X119987500Y-66409465D01*
X119987500Y-54781250D02*
X118268750Y-56500000D01*
X118481250Y-45175000D02*
X118268750Y-45387500D01*
X111612500Y-43175000D02*
X115862500Y-43175000D01*
X106768750Y-48018750D02*
X111612500Y-43175000D01*
X106768750Y-48515063D02*
X106768750Y-48018750D01*
X119956250Y-45175000D02*
X118481250Y-45175000D01*
X103268750Y-52015063D02*
X106768750Y-48515063D01*
X103268750Y-53112500D02*
X103268750Y-52015063D01*
X101186650Y-55194600D02*
X103268750Y-53112500D01*
X100225850Y-55194600D02*
X101186650Y-55194600D01*
X99395500Y-54364250D02*
X100225850Y-55194600D01*
X90999309Y-59480051D02*
X91739120Y-60219862D01*
X90167951Y-59480051D02*
X90999309Y-59480051D01*
X77755750Y-64183500D02*
X85464502Y-64183500D01*
X85464502Y-64183500D02*
X90167951Y-59480051D01*
X116415750Y-61272000D02*
X118268750Y-63125000D01*
X116415750Y-51278000D02*
X116415750Y-61272000D01*
X116643750Y-51050000D02*
X116415750Y-51278000D01*
X96031250Y-42681500D02*
X96412750Y-42300000D01*
X96031250Y-44187500D02*
X96031250Y-42681500D01*
D27*
X118025000Y-43512500D02*
X118268750Y-43512500D01*
X94463250Y-65556750D02*
X94463250Y-63293000D01*
X92870491Y-67149509D02*
X94463250Y-65556750D01*
X108291000Y-49221000D02*
X109362000Y-50292000D01*
X109362000Y-50292000D02*
X114173000Y-50292000D01*
X108331000Y-49181000D02*
X108291000Y-49221000D01*
X108331000Y-48641000D02*
X108331000Y-49181000D01*
X95366764Y-66915978D02*
X94001862Y-68280880D01*
X95366764Y-66901836D02*
X95366764Y-66915978D01*
X97035983Y-56829393D02*
X96427924Y-57437452D01*
X97035983Y-51431267D02*
X97035983Y-56829393D01*
X98518622Y-46736000D02*
X98330750Y-46548128D01*
X98268750Y-50198500D02*
X97035983Y-51431267D01*
X99250500Y-46736000D02*
X98518622Y-46736000D01*
X95364113Y-68050000D02*
X94567548Y-68846565D01*
X95487500Y-68050000D02*
X95364113Y-68050000D01*
X95923000Y-49925998D02*
X95923000Y-51614500D01*
X95143750Y-49146748D02*
X95923000Y-49925998D01*
X95143750Y-47793000D02*
X95143750Y-49146748D01*
X96170750Y-46766000D02*
X95143750Y-47793000D01*
X95923000Y-51614500D02*
X95393750Y-52143750D01*
X118268750Y-51393750D02*
X117206250Y-52456250D01*
X118268750Y-50943750D02*
X118268750Y-51393750D01*
X89328000Y-67731000D02*
X89368000Y-67691000D01*
X89328000Y-68271000D02*
X89328000Y-67731000D01*
X90495000Y-68271000D02*
X89328000Y-68271000D01*
X95123000Y-72899000D02*
X90495000Y-68271000D01*
D28*
X118268750Y-56500000D02*
X118006250Y-56500000D01*
D27*
X113610655Y-77281250D02*
X118268750Y-77281250D01*
X109619000Y-73289595D02*
X113610655Y-77281250D01*
X109619000Y-72987500D02*
X109619000Y-73289595D01*
X106801061Y-70169561D02*
X109619000Y-72987500D01*
X106801061Y-68771112D02*
X106801061Y-70169561D01*
X106923821Y-66991086D02*
X106801061Y-68771112D01*
X106923821Y-65517571D02*
X106923821Y-66991086D01*
X105302249Y-63895999D02*
X106923821Y-65517571D01*
X103759936Y-61916918D02*
X103759936Y-62497455D01*
X103759936Y-62497455D02*
X104103750Y-62841269D01*
D28*
X104893750Y-63187268D02*
X103759936Y-64321082D01*
X104893750Y-61437821D02*
X104893750Y-63187268D01*
X99732080Y-56276151D02*
X104893750Y-61437821D01*
X99218366Y-56276151D02*
X99732080Y-56276151D01*
X98668767Y-56825750D02*
X99218366Y-56276151D01*
X99395500Y-53176102D02*
X99395500Y-54364250D01*
X100341000Y-52230602D02*
X99395500Y-53176102D01*
X100341000Y-46172250D02*
X100341000Y-52230602D01*
X99395500Y-54364250D02*
X98103082Y-55656668D01*
X99231250Y-45062500D02*
X100341000Y-46172250D01*
X99231250Y-44187500D02*
X99231250Y-45062500D01*
X98103082Y-55656668D02*
X98103082Y-56260064D01*
D27*
X101981000Y-51031000D02*
X103291000Y-49721000D01*
X101981000Y-51181000D02*
X101981000Y-51031000D01*
X83006001Y-51256001D02*
X83006001Y-51106001D01*
X83006001Y-51106001D02*
X84316001Y-49796001D01*
D28*
X94022258Y-62503000D02*
X91739120Y-60219862D01*
X95253250Y-62503000D02*
X94022258Y-62503000D01*
X97553483Y-56809663D02*
X98103082Y-56260064D01*
X97553483Y-60250703D02*
X97553483Y-56809663D01*
X95253250Y-62503000D02*
X95301186Y-62503000D01*
X95301186Y-62503000D02*
X97553483Y-60250703D01*
X95253250Y-65826879D02*
X95253250Y-62503000D01*
X95288871Y-65862500D02*
X95253250Y-65826879D01*
X95288871Y-65862500D02*
X93436177Y-67715194D01*
X95550000Y-65862500D02*
X95288871Y-65862500D01*
X96853096Y-67165596D02*
X95550000Y-65862500D01*
X96859991Y-67165596D02*
X96853096Y-67165596D01*
X98081250Y-68386855D02*
X96859991Y-67165596D01*
X98081250Y-68824733D02*
X98668767Y-69412250D01*
X98081250Y-68386855D02*
X98081250Y-68824733D01*
X102130937Y-64337168D02*
X98081250Y-68386855D01*
X102644651Y-64337168D02*
X102130937Y-64337168D01*
X103194250Y-64886767D02*
X102644651Y-64337168D01*
D27*
X118300000Y-66500000D02*
X118268750Y-66531250D01*
X118300000Y-65300000D02*
X118300000Y-66500000D01*
X116260500Y-83885500D02*
X116268750Y-83893750D01*
X100385500Y-83885500D02*
X116260500Y-83885500D01*
X97768750Y-80635250D02*
X99862750Y-82729250D01*
X99862750Y-82729250D02*
X100385500Y-82729250D01*
X97768750Y-77140750D02*
X97768750Y-80635250D01*
X95803000Y-75175000D02*
X97768750Y-77140750D01*
X100385500Y-82729250D02*
X100385500Y-83885500D01*
X92487500Y-75175000D02*
X95803000Y-75175000D01*
X90656000Y-73343500D02*
X92487500Y-75175000D01*
X90656000Y-73002573D02*
X90656000Y-73343500D01*
X83484677Y-65831250D02*
X90656000Y-73002573D01*
X77896338Y-65831250D02*
X83484677Y-65831250D01*
X76177750Y-59560552D02*
X76177750Y-64112662D01*
X79117401Y-56620901D02*
X76177750Y-59560552D01*
X79138099Y-56620901D02*
X79117401Y-56620901D01*
X90682916Y-56620901D02*
X79138099Y-56620901D01*
X92870491Y-58808476D02*
X90682916Y-56620901D01*
X92870491Y-59088491D02*
X92870491Y-58808476D01*
X76177750Y-64112662D02*
X77896338Y-65831250D01*
X92676099Y-56166901D02*
X94996000Y-53847000D01*
X75723750Y-59372500D02*
X78929349Y-56166901D01*
X78929349Y-56166901D02*
X92676099Y-56166901D01*
X90247130Y-57596501D02*
X92304806Y-59654177D01*
X85016014Y-57596501D02*
X90247130Y-57596501D01*
X80304015Y-62308500D02*
X85016014Y-57596501D01*
X77755750Y-62308500D02*
X80304015Y-62308500D01*
X82390250Y-76199000D02*
X75723750Y-69532500D01*
X95123000Y-76199000D02*
X82390250Y-76199000D01*
X75723750Y-69532500D02*
X75723750Y-59372500D01*
X92790904Y-60140275D02*
X92304806Y-59654177D01*
X95541525Y-60140275D02*
X92790904Y-60140275D01*
X96043750Y-60642500D02*
X95541525Y-60140275D01*
X104773398Y-68102148D02*
X103663750Y-66992500D01*
X103241500Y-71224750D02*
X104773398Y-69692852D01*
X103241500Y-78380987D02*
X103241500Y-71224750D01*
X106772000Y-81459500D02*
X106320013Y-81459500D01*
X106320013Y-81459500D02*
X103241500Y-78380987D01*
X109793250Y-81459500D02*
X106772000Y-81459500D01*
X110512500Y-80740250D02*
X109793250Y-81459500D01*
X104773398Y-69692852D02*
X104773398Y-68102148D01*
X92943750Y-82593750D02*
X92943750Y-83606250D01*
X94143750Y-81393750D02*
X92943750Y-82593750D01*
X87153750Y-66358040D02*
X87153750Y-68203843D01*
X91093848Y-62417942D02*
X87153750Y-66358040D01*
X89752407Y-70802500D02*
X90963750Y-70802500D01*
X91093848Y-61837331D02*
X91093848Y-62417942D01*
X87153750Y-68203843D02*
X89752407Y-70802500D01*
X90607750Y-61351233D02*
X91093848Y-61837331D01*
D28*
X92854404Y-62466517D02*
X91173435Y-60785548D01*
X92854404Y-66034225D02*
X92854404Y-62466517D01*
X92304806Y-66583823D02*
X92854404Y-66034225D01*
X91755207Y-67133422D02*
X92304806Y-66583823D01*
X91755207Y-67783957D02*
X91755207Y-67133422D01*
X93933099Y-69961849D02*
X91755207Y-67783957D01*
X95133233Y-69412250D02*
X94583634Y-69961849D01*
X94583634Y-69961849D02*
X93933099Y-69961849D01*
X95682831Y-68862652D02*
X95133233Y-69412250D01*
X96987798Y-68862652D02*
X95682831Y-68862652D01*
X98103082Y-69977936D02*
X96987798Y-68862652D01*
X98428366Y-70303220D02*
X98428366Y-74612500D01*
X98103082Y-69977936D02*
X98428366Y-70303220D01*
X99218366Y-79831634D02*
X99143750Y-79906250D01*
X99218366Y-69961849D02*
X99218366Y-79831634D01*
X98668767Y-69412250D02*
X99218366Y-69961849D01*
X105270000Y-82520000D02*
X107346750Y-82520000D01*
X99143750Y-80925000D02*
X103675000Y-80925000D01*
X99143750Y-79906250D02*
X99143750Y-80925000D01*
X103675000Y-80925000D02*
X105270000Y-82520000D01*
D29*
X96831250Y-45362500D02*
X96831250Y-44187500D01*
X97231250Y-45762500D02*
X96831250Y-45362500D01*
X96170750Y-48641000D02*
X97231250Y-47580500D01*
X97231250Y-47580500D02*
X97231250Y-45762500D01*
X97631250Y-46991750D02*
X97631250Y-44187500D01*
X99250500Y-48611000D02*
X97631250Y-46991750D01*
M02*
