G04 #@! TF.GenerationSoftware,KiCad,Pcbnew,7.0.1*
G04 #@! TF.CreationDate,2023-04-11T18:09:49-04:00*
G04 #@! TF.ProjectId,pikas-pcbs,70696b61-732d-4706-9362-732e6b696361,rev?*
G04 #@! TF.SameCoordinates,Original*
G04 #@! TF.FileFunction,Soldermask,Bot*
G04 #@! TF.FilePolarity,Negative*
%FSLAX46Y46*%
G04 Gerber Fmt 4.6, Leading zero omitted, Abs format (unit mm)*
G04 Created by KiCad (PCBNEW 7.0.1) date 2023-04-11 18:09:49*
%MOMM*%
%LPD*%
G01*
G04 APERTURE LIST*
G04 Aperture macros list*
%AMRoundRect*
0 Rectangle with rounded corners*
0 $1 Rounding radius*
0 $2 $3 $4 $5 $6 $7 $8 $9 X,Y pos of 4 corners*
0 Add a 4 corners polygon primitive as box body*
4,1,4,$2,$3,$4,$5,$6,$7,$8,$9,$2,$3,0*
0 Add four circle primitives for the rounded corners*
1,1,$1+$1,$2,$3*
1,1,$1+$1,$4,$5*
1,1,$1+$1,$6,$7*
1,1,$1+$1,$8,$9*
0 Add four rect primitives between the rounded corners*
20,1,$1+$1,$2,$3,$4,$5,0*
20,1,$1+$1,$4,$5,$6,$7,0*
20,1,$1+$1,$6,$7,$8,$9,0*
20,1,$1+$1,$8,$9,$2,$3,0*%
%AMHorizOval*
0 Thick line with rounded ends*
0 $1 width*
0 $2 $3 position (X,Y) of the first rounded end (center of the circle)*
0 $4 $5 position (X,Y) of the second rounded end (center of the circle)*
0 Add line between two ends*
20,1,$1,$2,$3,$4,$5,0*
0 Add two circle primitives to create the rounded ends*
1,1,$1,$2,$3*
1,1,$1,$4,$5*%
G04 Aperture macros list end*
%ADD10C,2.102000*%
%ADD11C,1.852000*%
%ADD12C,4.089800*%
%ADD13HorizOval,2.352000X0.655001X0.730000X-0.655001X-0.730000X0*%
%ADD14C,2.352000*%
%ADD15HorizOval,2.352000X0.020000X0.290000X-0.020000X-0.290000X0*%
%ADD16C,2.007000*%
%ADD17RoundRect,0.051000X-0.952500X-0.952500X0.952500X-0.952500X0.952500X0.952500X-0.952500X0.952500X0*%
%ADD18HorizOval,2.352000X0.655001X0.730000X-0.655001X-0.730000X0*%
%ADD19RoundRect,0.294750X0.456250X-0.243750X0.456250X0.243750X-0.456250X0.243750X-0.456250X-0.243750X0*%
%ADD20RoundRect,0.294750X-0.456250X0.243750X-0.456250X-0.243750X0.456250X-0.243750X0.456250X0.243750X0*%
%ADD21RoundRect,0.051000X0.600000X-0.450000X0.600000X0.450000X-0.600000X0.450000X-0.600000X-0.450000X0*%
%ADD22RoundRect,0.301000X-0.625000X0.375000X-0.625000X-0.375000X0.625000X-0.375000X0.625000X0.375000X0*%
%ADD23RoundRect,0.051000X-0.900000X-0.550000X0.900000X-0.550000X0.900000X0.550000X-0.900000X0.550000X0*%
%ADD24RoundRect,0.051000X-0.724784X0.335876X0.335876X-0.724784X0.724784X-0.335876X-0.335876X0.724784X0*%
%ADD25RoundRect,0.051000X-0.335876X-0.724784X0.724784X0.335876X0.335876X0.724784X-0.724784X-0.335876X0*%
%ADD26O,1.802000X2.802000*%
%ADD27RoundRect,0.051000X-0.250000X1.125000X-0.250000X-1.125000X0.250000X-1.125000X0.250000X1.125000X0*%
%ADD28RoundRect,0.051000X0.700000X0.600000X-0.700000X0.600000X-0.700000X-0.600000X0.700000X-0.600000X0*%
G04 APERTURE END LIST*
D10*
X118903750Y-82232500D03*
X76993750Y-82300000D03*
X76993750Y-40322500D03*
X118903750Y-40322500D03*
D11*
X100711000Y-53721000D03*
D12*
X105791000Y-53721000D03*
D11*
X110871000Y-53721000D03*
D13*
X102636001Y-50451000D03*
D14*
X103291000Y-49721000D03*
D15*
X108311000Y-48931000D03*
D14*
X108331000Y-48641000D03*
D16*
X104521000Y-58801000D03*
D17*
X107061000Y-58801000D03*
D11*
X81748000Y-72771000D03*
D12*
X86828000Y-72771000D03*
D11*
X91908000Y-72771000D03*
D18*
X83673001Y-69501000D03*
D14*
X84328000Y-68771000D03*
D15*
X89348000Y-67981000D03*
D14*
X89368000Y-67691000D03*
D16*
X85558000Y-77851000D03*
D17*
X88098000Y-77851000D03*
D11*
X100711000Y-72771000D03*
D12*
X105791000Y-72771000D03*
D11*
X110871000Y-72771000D03*
D13*
X102636001Y-69501000D03*
D14*
X103291000Y-68771000D03*
D15*
X108311000Y-67981000D03*
D14*
X108331000Y-67691000D03*
D16*
X104521000Y-77851000D03*
D17*
X107061000Y-77851000D03*
D11*
X81736001Y-53796001D03*
D12*
X86816001Y-53796001D03*
D11*
X91896001Y-53796001D03*
D13*
X83661002Y-50526001D03*
D14*
X84316001Y-49796001D03*
D15*
X89336001Y-49006001D03*
D14*
X89356001Y-48716001D03*
D16*
X85546001Y-58876001D03*
D17*
X88086001Y-58876001D03*
D19*
X116363750Y-82471500D03*
X116363750Y-80596500D03*
D20*
X107346750Y-80645000D03*
X107346750Y-82520000D03*
X118268750Y-66531250D03*
X118268750Y-68406250D03*
X77755750Y-64183500D03*
X77755750Y-62308500D03*
X118268750Y-54625000D03*
X118268750Y-56500000D03*
X118268750Y-43800000D03*
X118268750Y-45675000D03*
X118268750Y-71293750D03*
X118268750Y-73168750D03*
D21*
X94996000Y-53847000D03*
X94996000Y-50547000D03*
X114173000Y-53592000D03*
X114173000Y-50292000D03*
X95123000Y-76199000D03*
X95123000Y-72899000D03*
X114300000Y-76072000D03*
X114300000Y-72772000D03*
D22*
X118268750Y-60325000D03*
X118268750Y-63125000D03*
D19*
X96170750Y-48641000D03*
X96170750Y-46766000D03*
D20*
X118268750Y-49068750D03*
X118268750Y-50943750D03*
X118268750Y-75406250D03*
X118268750Y-77281250D03*
D23*
X99143750Y-79906250D03*
X92943750Y-83606250D03*
X99143750Y-83606250D03*
X92943750Y-79906250D03*
D24*
X98103082Y-69977936D03*
X98668767Y-69412250D03*
X99234452Y-68846565D03*
X99800138Y-68280880D03*
X100365823Y-67715194D03*
X100931509Y-67149509D03*
X101497194Y-66583823D03*
X102062880Y-66018138D03*
X102628565Y-65452452D03*
X103194250Y-64886767D03*
X103759936Y-64321082D03*
D25*
X103759936Y-61916918D03*
X103194250Y-61351233D03*
X102628565Y-60785548D03*
X102062880Y-60219862D03*
X101497194Y-59654177D03*
X100931509Y-59088491D03*
X100365823Y-58522806D03*
X99800138Y-57957120D03*
X99234452Y-57391435D03*
X98668767Y-56825750D03*
X98103082Y-56260064D03*
D24*
X95698918Y-56260064D03*
X95133233Y-56825750D03*
X94567548Y-57391435D03*
X94001862Y-57957120D03*
X93436177Y-58522806D03*
X92870491Y-59088491D03*
X92304806Y-59654177D03*
X91739120Y-60219862D03*
X91173435Y-60785548D03*
X90607750Y-61351233D03*
X90042064Y-61916918D03*
D25*
X90042064Y-64321082D03*
X90607750Y-64886767D03*
X91173435Y-65452452D03*
X91739120Y-66018138D03*
X92304806Y-66583823D03*
X92870491Y-67149509D03*
X93436177Y-67715194D03*
X94001862Y-68280880D03*
X94567548Y-68846565D03*
X95133233Y-69412250D03*
X95698918Y-69977936D03*
D26*
X93981250Y-44187500D03*
X101281250Y-44187500D03*
X93981250Y-39687500D03*
X101281250Y-39687500D03*
D27*
X96031250Y-44187500D03*
X96831250Y-44187500D03*
X97631250Y-44187500D03*
X98431250Y-44187500D03*
X99231250Y-44187500D03*
D28*
X112712500Y-82440250D03*
X110512500Y-82440250D03*
X110512500Y-80740250D03*
X112712500Y-80740250D03*
D19*
X99250500Y-48611000D03*
X99250500Y-46736000D03*
G36*
X95903104Y-69099864D02*
G01*
X95903561Y-69101573D01*
X95900331Y-69117756D01*
X95993279Y-69210795D01*
X96009704Y-69207534D01*
X96011413Y-69207993D01*
X96012090Y-69209627D01*
X96011205Y-69211159D01*
X96000004Y-69218643D01*
X94939625Y-70279022D01*
X94932126Y-70290244D01*
X94930594Y-70291129D01*
X94928960Y-70290452D01*
X94928501Y-70288744D01*
X94931770Y-70272270D01*
X94838712Y-70179340D01*
X94822579Y-70182563D01*
X94820869Y-70182106D01*
X94820191Y-70180472D01*
X94821076Y-70178939D01*
X94832146Y-70171542D01*
X95892525Y-69111163D01*
X95899937Y-69100071D01*
X95901470Y-69099186D01*
X95903104Y-69099864D01*
G37*
G36*
X97901990Y-69099963D02*
G01*
X97909474Y-69111163D01*
X98969853Y-70171542D01*
X98980945Y-70178954D01*
X98981830Y-70180487D01*
X98981152Y-70182121D01*
X98979443Y-70182578D01*
X98963229Y-70179342D01*
X98870182Y-70272372D01*
X98873424Y-70288633D01*
X98872967Y-70290342D01*
X98871333Y-70291020D01*
X98869800Y-70290135D01*
X98862374Y-70279022D01*
X97801995Y-69218643D01*
X97790817Y-69211174D01*
X97789932Y-69209642D01*
X97790609Y-69208007D01*
X97792318Y-69207549D01*
X97808663Y-69210797D01*
X97901620Y-69117857D01*
X97898365Y-69101464D01*
X97898824Y-69099755D01*
X97900458Y-69099078D01*
X97901990Y-69099963D01*
G37*
G36*
X95337403Y-68534202D02*
G01*
X95337860Y-68535912D01*
X95334636Y-68552051D01*
X95427585Y-68645111D01*
X95444018Y-68641848D01*
X95445727Y-68642307D01*
X95446404Y-68643941D01*
X95445519Y-68645473D01*
X95434319Y-68652957D01*
X94373940Y-69713336D01*
X94366456Y-69724536D01*
X94364924Y-69725421D01*
X94363290Y-69724744D01*
X94362831Y-69723035D01*
X94366094Y-69706602D01*
X94273034Y-69613653D01*
X94256895Y-69616877D01*
X94255185Y-69616420D01*
X94254507Y-69614786D01*
X94255392Y-69613253D01*
X94266461Y-69605857D01*
X95326840Y-68545478D01*
X95334236Y-68534409D01*
X95335769Y-68533524D01*
X95337403Y-68534202D01*
G37*
G36*
X98467690Y-68534300D02*
G01*
X98475159Y-68545478D01*
X99535538Y-69605857D01*
X99546630Y-69613269D01*
X99547515Y-69614802D01*
X99546837Y-69616436D01*
X99545128Y-69616893D01*
X99528906Y-69613655D01*
X99435857Y-69706704D01*
X99439095Y-69722926D01*
X99438638Y-69724635D01*
X99437004Y-69725313D01*
X99435471Y-69724428D01*
X99428059Y-69713336D01*
X98367680Y-68652957D01*
X98356502Y-68645488D01*
X98355617Y-68643956D01*
X98356294Y-68642321D01*
X98358003Y-68641863D01*
X98374356Y-68645113D01*
X98467315Y-68552154D01*
X98464065Y-68535801D01*
X98464523Y-68534092D01*
X98466158Y-68533415D01*
X98467690Y-68534300D01*
G37*
G36*
X94771718Y-67968516D02*
G01*
X94772175Y-67970226D01*
X94768952Y-67986359D01*
X94861882Y-68079417D01*
X94878356Y-68076148D01*
X94880064Y-68076607D01*
X94880741Y-68078241D01*
X94879856Y-68079773D01*
X94868634Y-68087272D01*
X93808255Y-69147651D01*
X93800771Y-69158852D01*
X93799239Y-69159737D01*
X93797605Y-69159060D01*
X93797146Y-69157351D01*
X93800407Y-69140926D01*
X93707368Y-69047978D01*
X93691185Y-69051208D01*
X93689476Y-69050751D01*
X93688798Y-69049117D01*
X93689683Y-69047584D01*
X93700775Y-69040172D01*
X94761154Y-67979793D01*
X94768551Y-67968723D01*
X94770084Y-67967838D01*
X94771718Y-67968516D01*
G37*
G36*
X99033376Y-67968615D02*
G01*
X99040845Y-67979793D01*
X100101224Y-69040172D01*
X100112337Y-69047598D01*
X100113222Y-69049131D01*
X100112544Y-69050765D01*
X100110835Y-69051222D01*
X100094574Y-69047980D01*
X100001544Y-69141027D01*
X100004780Y-69157241D01*
X100004323Y-69158950D01*
X100002689Y-69159628D01*
X100001156Y-69158743D01*
X99993744Y-69147651D01*
X98933365Y-68087272D01*
X98922165Y-68079788D01*
X98921280Y-68078256D01*
X98921957Y-68076622D01*
X98923666Y-68076163D01*
X98940059Y-68079418D01*
X99032999Y-67986461D01*
X99029751Y-67970116D01*
X99030209Y-67968407D01*
X99031844Y-67967730D01*
X99033376Y-67968615D01*
G37*
G36*
X94206048Y-67402808D02*
G01*
X94206505Y-67404517D01*
X94203275Y-67420700D01*
X94296223Y-67513739D01*
X94312648Y-67510478D01*
X94314357Y-67510937D01*
X94315034Y-67512571D01*
X94314149Y-67514103D01*
X94302948Y-67521587D01*
X93242569Y-68581966D01*
X93235070Y-68593188D01*
X93233538Y-68594073D01*
X93231904Y-68593396D01*
X93231445Y-68591688D01*
X93234714Y-68575214D01*
X93141656Y-68482284D01*
X93125523Y-68485507D01*
X93123813Y-68485050D01*
X93123135Y-68483416D01*
X93124020Y-68481883D01*
X93135090Y-68474486D01*
X94195469Y-67414107D01*
X94202881Y-67403015D01*
X94204414Y-67402130D01*
X94206048Y-67402808D01*
G37*
G36*
X99599046Y-67402907D02*
G01*
X99606530Y-67414107D01*
X100666909Y-68474486D01*
X100678001Y-68481898D01*
X100678886Y-68483431D01*
X100678208Y-68485065D01*
X100676499Y-68485522D01*
X100660285Y-68482286D01*
X100567238Y-68575316D01*
X100570480Y-68591577D01*
X100570023Y-68593286D01*
X100568389Y-68593964D01*
X100566856Y-68593079D01*
X100559430Y-68581966D01*
X99499051Y-67521587D01*
X99487873Y-67514118D01*
X99486988Y-67512586D01*
X99487665Y-67510951D01*
X99489374Y-67510493D01*
X99505719Y-67513741D01*
X99598676Y-67420801D01*
X99595421Y-67404408D01*
X99595880Y-67402699D01*
X99597514Y-67402022D01*
X99599046Y-67402907D01*
G37*
G36*
X93640347Y-66837145D02*
G01*
X93640804Y-66838855D01*
X93637581Y-66854988D01*
X93730511Y-66948046D01*
X93746985Y-66944777D01*
X93748693Y-66945236D01*
X93749370Y-66946870D01*
X93748485Y-66948402D01*
X93737263Y-66955901D01*
X92676884Y-68016280D01*
X92669400Y-68027481D01*
X92667868Y-68028366D01*
X92666234Y-68027689D01*
X92665775Y-68025980D01*
X92669036Y-68009555D01*
X92575997Y-67916607D01*
X92559814Y-67919837D01*
X92558105Y-67919380D01*
X92557427Y-67917746D01*
X92558312Y-67916213D01*
X92569404Y-67908801D01*
X93629783Y-66848422D01*
X93637180Y-66837352D01*
X93638713Y-66836467D01*
X93640347Y-66837145D01*
G37*
G36*
X100164747Y-66837244D02*
G01*
X100172216Y-66848422D01*
X101232595Y-67908801D01*
X101243708Y-67916227D01*
X101244593Y-67917760D01*
X101243915Y-67919394D01*
X101242206Y-67919851D01*
X101225945Y-67916609D01*
X101132915Y-68009656D01*
X101136151Y-68025870D01*
X101135694Y-68027579D01*
X101134060Y-68028257D01*
X101132527Y-68027372D01*
X101125115Y-68016280D01*
X100064736Y-66955901D01*
X100053536Y-66948417D01*
X100052651Y-66946885D01*
X100053328Y-66945251D01*
X100055037Y-66944792D01*
X100071430Y-66948047D01*
X100164370Y-66855090D01*
X100161122Y-66838745D01*
X100161580Y-66837036D01*
X100163215Y-66836359D01*
X100164747Y-66837244D01*
G37*
G36*
X93074677Y-66271437D02*
G01*
X93075134Y-66273146D01*
X93071904Y-66289329D01*
X93164852Y-66382368D01*
X93181277Y-66379107D01*
X93182986Y-66379566D01*
X93183663Y-66381200D01*
X93182778Y-66382732D01*
X93171577Y-66390216D01*
X92111198Y-67450595D01*
X92103699Y-67461817D01*
X92102167Y-67462702D01*
X92100533Y-67462025D01*
X92100074Y-67460317D01*
X92103343Y-67443843D01*
X92010285Y-67350913D01*
X91994152Y-67354136D01*
X91992442Y-67353679D01*
X91991764Y-67352045D01*
X91992649Y-67350512D01*
X92003719Y-67343115D01*
X93064098Y-66282736D01*
X93071510Y-66271644D01*
X93073043Y-66270759D01*
X93074677Y-66271437D01*
G37*
G36*
X100730417Y-66271536D02*
G01*
X100737901Y-66282736D01*
X101798280Y-67343115D01*
X101809372Y-67350527D01*
X101810257Y-67352060D01*
X101809579Y-67353694D01*
X101807870Y-67354151D01*
X101791656Y-67350915D01*
X101698609Y-67443945D01*
X101701851Y-67460206D01*
X101701394Y-67461915D01*
X101699760Y-67462593D01*
X101698227Y-67461708D01*
X101690801Y-67450595D01*
X100630422Y-66390216D01*
X100619244Y-66382747D01*
X100618359Y-66381215D01*
X100619036Y-66379580D01*
X100620745Y-66379122D01*
X100637090Y-66382370D01*
X100730047Y-66289430D01*
X100726792Y-66273037D01*
X100727251Y-66271328D01*
X100728885Y-66270651D01*
X100730417Y-66271536D01*
G37*
G36*
X92508976Y-65705774D02*
G01*
X92509433Y-65707484D01*
X92506210Y-65723617D01*
X92599140Y-65816675D01*
X92615614Y-65813406D01*
X92617322Y-65813865D01*
X92617999Y-65815499D01*
X92617114Y-65817031D01*
X92605892Y-65824530D01*
X91545513Y-66884909D01*
X91538029Y-66896110D01*
X91536497Y-66896995D01*
X91534863Y-66896318D01*
X91534404Y-66894609D01*
X91537665Y-66878184D01*
X91444626Y-66785236D01*
X91428443Y-66788466D01*
X91426734Y-66788009D01*
X91426056Y-66786375D01*
X91426941Y-66784842D01*
X91438033Y-66777430D01*
X92498412Y-65717051D01*
X92505809Y-65705981D01*
X92507342Y-65705096D01*
X92508976Y-65705774D01*
G37*
G36*
X101296118Y-65705873D02*
G01*
X101303587Y-65717051D01*
X102363966Y-66777430D01*
X102375079Y-66784856D01*
X102375964Y-66786389D01*
X102375286Y-66788023D01*
X102373577Y-66788480D01*
X102357316Y-66785238D01*
X102264286Y-66878285D01*
X102267522Y-66894499D01*
X102267065Y-66896208D01*
X102265431Y-66896886D01*
X102263898Y-66896001D01*
X102256486Y-66884909D01*
X101196107Y-65824530D01*
X101184907Y-65817046D01*
X101184022Y-65815514D01*
X101184699Y-65813880D01*
X101186408Y-65813421D01*
X101202801Y-65816676D01*
X101295741Y-65723719D01*
X101292493Y-65707374D01*
X101292951Y-65705665D01*
X101294586Y-65704988D01*
X101296118Y-65705873D01*
G37*
G36*
X91943306Y-65140066D02*
G01*
X91943763Y-65141775D01*
X91940533Y-65157958D01*
X92033481Y-65250997D01*
X92049906Y-65247736D01*
X92051615Y-65248195D01*
X92052292Y-65249829D01*
X92051407Y-65251361D01*
X92040206Y-65258845D01*
X90979827Y-66319224D01*
X90972328Y-66330446D01*
X90970796Y-66331331D01*
X90969162Y-66330654D01*
X90968703Y-66328946D01*
X90971972Y-66312472D01*
X90878914Y-66219542D01*
X90862781Y-66222765D01*
X90861071Y-66222308D01*
X90860393Y-66220674D01*
X90861278Y-66219141D01*
X90872348Y-66211744D01*
X91932727Y-65151365D01*
X91940139Y-65140273D01*
X91941672Y-65139388D01*
X91943306Y-65140066D01*
G37*
G36*
X101861788Y-65140165D02*
G01*
X101869272Y-65151365D01*
X102929651Y-66211744D01*
X102940743Y-66219156D01*
X102941628Y-66220689D01*
X102940950Y-66222323D01*
X102939241Y-66222780D01*
X102923027Y-66219544D01*
X102829980Y-66312574D01*
X102833222Y-66328835D01*
X102832765Y-66330544D01*
X102831131Y-66331222D01*
X102829598Y-66330337D01*
X102822172Y-66319224D01*
X101761793Y-65258845D01*
X101750615Y-65251376D01*
X101749730Y-65249844D01*
X101750407Y-65248209D01*
X101752116Y-65247751D01*
X101768461Y-65250999D01*
X101861418Y-65158059D01*
X101858163Y-65141666D01*
X101858622Y-65139957D01*
X101860256Y-65139280D01*
X101861788Y-65140165D01*
G37*
G36*
X91377605Y-64574404D02*
G01*
X91378062Y-64576114D01*
X91374838Y-64592253D01*
X91467787Y-64685313D01*
X91484220Y-64682050D01*
X91485929Y-64682509D01*
X91486606Y-64684143D01*
X91485721Y-64685675D01*
X91474521Y-64693159D01*
X90414142Y-65753538D01*
X90406658Y-65764738D01*
X90405126Y-65765623D01*
X90403492Y-65764946D01*
X90403033Y-65763237D01*
X90406296Y-65746804D01*
X90313236Y-65653855D01*
X90297097Y-65657079D01*
X90295387Y-65656622D01*
X90294709Y-65654988D01*
X90295594Y-65653455D01*
X90306663Y-65646059D01*
X91367042Y-64585680D01*
X91374438Y-64574611D01*
X91375971Y-64573726D01*
X91377605Y-64574404D01*
G37*
G36*
X102427488Y-64574502D02*
G01*
X102434957Y-64585680D01*
X103495336Y-65646059D01*
X103506428Y-65653471D01*
X103507313Y-65655004D01*
X103506635Y-65656638D01*
X103504926Y-65657095D01*
X103488704Y-65653857D01*
X103395655Y-65746906D01*
X103398893Y-65763128D01*
X103398436Y-65764837D01*
X103396802Y-65765515D01*
X103395269Y-65764630D01*
X103387857Y-65753538D01*
X102327478Y-64693159D01*
X102316300Y-64685690D01*
X102315415Y-64684158D01*
X102316092Y-64682523D01*
X102317801Y-64682065D01*
X102334154Y-64685315D01*
X102427113Y-64592356D01*
X102423863Y-64576003D01*
X102424321Y-64574294D01*
X102425956Y-64573617D01*
X102427488Y-64574502D01*
G37*
G36*
X90811920Y-64008718D02*
G01*
X90812377Y-64010428D01*
X90809154Y-64026561D01*
X90902084Y-64119619D01*
X90918558Y-64116350D01*
X90920266Y-64116809D01*
X90920943Y-64118443D01*
X90920058Y-64119975D01*
X90908836Y-64127474D01*
X89848457Y-65187853D01*
X89840973Y-65199054D01*
X89839441Y-65199939D01*
X89837807Y-65199262D01*
X89837348Y-65197553D01*
X89840609Y-65181128D01*
X89747570Y-65088180D01*
X89731387Y-65091410D01*
X89729678Y-65090953D01*
X89729000Y-65089319D01*
X89729885Y-65087786D01*
X89740977Y-65080374D01*
X90801356Y-64019995D01*
X90808753Y-64008925D01*
X90810286Y-64008040D01*
X90811920Y-64008718D01*
G37*
G36*
X102993174Y-64008817D02*
G01*
X103000643Y-64019995D01*
X104061022Y-65080374D01*
X104072135Y-65087800D01*
X104073020Y-65089333D01*
X104072342Y-65090967D01*
X104070633Y-65091424D01*
X104054372Y-65088182D01*
X103961342Y-65181229D01*
X103964578Y-65197443D01*
X103964121Y-65199152D01*
X103962487Y-65199830D01*
X103960954Y-65198945D01*
X103953542Y-65187853D01*
X102893163Y-64127474D01*
X102881963Y-64119990D01*
X102881078Y-64118458D01*
X102881755Y-64116824D01*
X102883464Y-64116365D01*
X102899857Y-64119620D01*
X102992797Y-64026663D01*
X102989549Y-64010318D01*
X102990007Y-64008609D01*
X102991642Y-64007932D01*
X102993174Y-64008817D01*
G37*
G36*
X103964106Y-61038869D02*
G01*
X103964563Y-61040579D01*
X103961340Y-61056712D01*
X104054270Y-61149770D01*
X104070744Y-61146501D01*
X104072452Y-61146960D01*
X104073129Y-61148594D01*
X104072244Y-61150126D01*
X104061022Y-61157625D01*
X103000643Y-62218004D01*
X102993159Y-62229205D01*
X102991627Y-62230090D01*
X102989993Y-62229413D01*
X102989534Y-62227704D01*
X102992795Y-62211279D01*
X102899756Y-62118331D01*
X102883573Y-62121561D01*
X102881864Y-62121104D01*
X102881186Y-62119470D01*
X102882071Y-62117937D01*
X102893163Y-62110525D01*
X103953542Y-61050146D01*
X103960939Y-61039076D01*
X103962472Y-61038191D01*
X103964106Y-61038869D01*
G37*
G36*
X89840988Y-61038968D02*
G01*
X89848457Y-61050146D01*
X90908836Y-62110525D01*
X90919949Y-62117951D01*
X90920834Y-62119484D01*
X90920156Y-62121118D01*
X90918447Y-62121575D01*
X90902186Y-62118333D01*
X90809156Y-62211380D01*
X90812392Y-62227594D01*
X90811935Y-62229303D01*
X90810301Y-62229981D01*
X90808768Y-62229096D01*
X90801356Y-62218004D01*
X89740977Y-61157625D01*
X89729777Y-61150141D01*
X89728892Y-61148609D01*
X89729569Y-61146975D01*
X89731278Y-61146516D01*
X89747671Y-61149771D01*
X89840611Y-61056814D01*
X89837363Y-61040469D01*
X89837821Y-61038760D01*
X89839456Y-61038083D01*
X89840988Y-61038968D01*
G37*
G36*
X103398420Y-60473185D02*
G01*
X103398877Y-60474895D01*
X103395653Y-60491034D01*
X103488602Y-60584094D01*
X103505035Y-60580831D01*
X103506744Y-60581290D01*
X103507421Y-60582924D01*
X103506536Y-60584456D01*
X103495336Y-60591940D01*
X102434957Y-61652319D01*
X102427473Y-61663519D01*
X102425941Y-61664404D01*
X102424307Y-61663727D01*
X102423848Y-61662018D01*
X102427111Y-61645585D01*
X102334051Y-61552636D01*
X102317912Y-61555860D01*
X102316202Y-61555403D01*
X102315524Y-61553769D01*
X102316409Y-61552236D01*
X102327478Y-61544840D01*
X103387857Y-60484461D01*
X103395253Y-60473392D01*
X103396786Y-60472507D01*
X103398420Y-60473185D01*
G37*
G36*
X90406673Y-60473283D02*
G01*
X90414142Y-60484461D01*
X91474521Y-61544840D01*
X91485613Y-61552252D01*
X91486498Y-61553785D01*
X91485820Y-61555419D01*
X91484111Y-61555876D01*
X91467889Y-61552638D01*
X91374840Y-61645687D01*
X91378078Y-61661909D01*
X91377621Y-61663618D01*
X91375987Y-61664296D01*
X91374454Y-61663411D01*
X91367042Y-61652319D01*
X90306663Y-60591940D01*
X90295485Y-60584471D01*
X90294600Y-60582939D01*
X90295277Y-60581304D01*
X90296986Y-60580846D01*
X90313339Y-60584096D01*
X90406298Y-60491137D01*
X90403048Y-60474784D01*
X90403506Y-60473075D01*
X90405141Y-60472398D01*
X90406673Y-60473283D01*
G37*
G36*
X102832751Y-59907476D02*
G01*
X102833208Y-59909185D01*
X102829978Y-59925368D01*
X102922926Y-60018407D01*
X102939351Y-60015146D01*
X102941060Y-60015605D01*
X102941737Y-60017239D01*
X102940852Y-60018771D01*
X102929651Y-60026255D01*
X101869272Y-61086634D01*
X101861773Y-61097856D01*
X101860241Y-61098741D01*
X101858607Y-61098064D01*
X101858148Y-61096356D01*
X101861417Y-61079882D01*
X101768359Y-60986952D01*
X101752226Y-60990175D01*
X101750516Y-60989718D01*
X101749838Y-60988084D01*
X101750723Y-60986551D01*
X101761793Y-60979154D01*
X102822172Y-59918775D01*
X102829584Y-59907683D01*
X102831117Y-59906798D01*
X102832751Y-59907476D01*
G37*
G36*
X90972343Y-59907575D02*
G01*
X90979827Y-59918775D01*
X92040206Y-60979154D01*
X92051298Y-60986566D01*
X92052183Y-60988099D01*
X92051505Y-60989733D01*
X92049796Y-60990190D01*
X92033582Y-60986954D01*
X91940535Y-61079984D01*
X91943777Y-61096245D01*
X91943320Y-61097954D01*
X91941686Y-61098632D01*
X91940153Y-61097747D01*
X91932727Y-61086634D01*
X90872348Y-60026255D01*
X90861170Y-60018786D01*
X90860285Y-60017254D01*
X90860962Y-60015619D01*
X90862671Y-60015161D01*
X90879016Y-60018409D01*
X90971973Y-59925469D01*
X90968718Y-59909076D01*
X90969177Y-59907367D01*
X90970811Y-59906690D01*
X90972343Y-59907575D01*
G37*
G36*
X102267050Y-59341813D02*
G01*
X102267507Y-59343523D01*
X102264284Y-59359656D01*
X102357214Y-59452714D01*
X102373688Y-59449445D01*
X102375396Y-59449904D01*
X102376073Y-59451538D01*
X102375188Y-59453070D01*
X102363966Y-59460569D01*
X101303587Y-60520948D01*
X101296103Y-60532149D01*
X101294571Y-60533034D01*
X101292937Y-60532357D01*
X101292478Y-60530648D01*
X101295739Y-60514223D01*
X101202700Y-60421275D01*
X101186517Y-60424505D01*
X101184808Y-60424048D01*
X101184130Y-60422414D01*
X101185015Y-60420881D01*
X101196107Y-60413469D01*
X102256486Y-59353090D01*
X102263883Y-59342020D01*
X102265416Y-59341135D01*
X102267050Y-59341813D01*
G37*
G36*
X91538044Y-59341912D02*
G01*
X91545513Y-59353090D01*
X92605892Y-60413469D01*
X92617005Y-60420895D01*
X92617890Y-60422428D01*
X92617212Y-60424062D01*
X92615503Y-60424519D01*
X92599242Y-60421277D01*
X92506212Y-60514324D01*
X92509448Y-60530538D01*
X92508991Y-60532247D01*
X92507357Y-60532925D01*
X92505824Y-60532040D01*
X92498412Y-60520948D01*
X91438033Y-59460569D01*
X91426833Y-59453085D01*
X91425948Y-59451553D01*
X91426625Y-59449919D01*
X91428334Y-59449460D01*
X91444727Y-59452715D01*
X91537667Y-59359758D01*
X91534419Y-59343413D01*
X91534877Y-59341704D01*
X91536512Y-59341027D01*
X91538044Y-59341912D01*
G37*
G36*
X101701380Y-58776105D02*
G01*
X101701837Y-58777814D01*
X101698607Y-58793997D01*
X101791555Y-58887036D01*
X101807980Y-58883775D01*
X101809689Y-58884234D01*
X101810366Y-58885868D01*
X101809481Y-58887400D01*
X101798280Y-58894884D01*
X100737901Y-59955263D01*
X100730402Y-59966485D01*
X100728870Y-59967370D01*
X100727236Y-59966693D01*
X100726777Y-59964985D01*
X100730046Y-59948511D01*
X100636988Y-59855581D01*
X100620855Y-59858804D01*
X100619145Y-59858347D01*
X100618467Y-59856713D01*
X100619352Y-59855180D01*
X100630422Y-59847783D01*
X101690801Y-58787404D01*
X101698213Y-58776312D01*
X101699746Y-58775427D01*
X101701380Y-58776105D01*
G37*
G36*
X92103714Y-58776204D02*
G01*
X92111198Y-58787404D01*
X93171577Y-59847783D01*
X93182669Y-59855195D01*
X93183554Y-59856728D01*
X93182876Y-59858362D01*
X93181167Y-59858819D01*
X93164953Y-59855583D01*
X93071906Y-59948613D01*
X93075148Y-59964874D01*
X93074691Y-59966583D01*
X93073057Y-59967261D01*
X93071524Y-59966376D01*
X93064098Y-59955263D01*
X92003719Y-58894884D01*
X91992541Y-58887415D01*
X91991656Y-58885883D01*
X91992333Y-58884248D01*
X91994042Y-58883790D01*
X92010387Y-58887038D01*
X92103344Y-58794098D01*
X92100089Y-58777705D01*
X92100548Y-58775996D01*
X92102182Y-58775319D01*
X92103714Y-58776204D01*
G37*
G36*
X101135679Y-58210442D02*
G01*
X101136136Y-58212152D01*
X101132913Y-58228285D01*
X101225843Y-58321343D01*
X101242317Y-58318074D01*
X101244025Y-58318533D01*
X101244702Y-58320167D01*
X101243817Y-58321699D01*
X101232595Y-58329198D01*
X100172216Y-59389577D01*
X100164732Y-59400778D01*
X100163200Y-59401663D01*
X100161566Y-59400986D01*
X100161107Y-59399277D01*
X100164368Y-59382852D01*
X100071329Y-59289904D01*
X100055146Y-59293134D01*
X100053437Y-59292677D01*
X100052759Y-59291043D01*
X100053644Y-59289510D01*
X100064736Y-59282098D01*
X101125115Y-58221719D01*
X101132512Y-58210649D01*
X101134045Y-58209764D01*
X101135679Y-58210442D01*
G37*
G36*
X92669415Y-58210541D02*
G01*
X92676884Y-58221719D01*
X93737263Y-59282098D01*
X93748376Y-59289524D01*
X93749261Y-59291057D01*
X93748583Y-59292691D01*
X93746874Y-59293148D01*
X93730613Y-59289906D01*
X93637583Y-59382953D01*
X93640819Y-59399167D01*
X93640362Y-59400876D01*
X93638728Y-59401554D01*
X93637195Y-59400669D01*
X93629783Y-59389577D01*
X92569404Y-58329198D01*
X92558204Y-58321714D01*
X92557319Y-58320182D01*
X92557996Y-58318548D01*
X92559705Y-58318089D01*
X92576098Y-58321344D01*
X92669038Y-58228387D01*
X92665790Y-58212042D01*
X92666248Y-58210333D01*
X92667883Y-58209656D01*
X92669415Y-58210541D01*
G37*
G36*
X100570009Y-57644734D02*
G01*
X100570466Y-57646443D01*
X100567236Y-57662626D01*
X100660184Y-57755665D01*
X100676609Y-57752404D01*
X100678318Y-57752863D01*
X100678995Y-57754497D01*
X100678110Y-57756029D01*
X100666909Y-57763513D01*
X99606530Y-58823892D01*
X99599031Y-58835114D01*
X99597499Y-58835999D01*
X99595865Y-58835322D01*
X99595406Y-58833614D01*
X99598675Y-58817140D01*
X99505617Y-58724210D01*
X99489484Y-58727433D01*
X99487774Y-58726976D01*
X99487096Y-58725342D01*
X99487981Y-58723809D01*
X99499051Y-58716412D01*
X100559430Y-57656033D01*
X100566842Y-57644941D01*
X100568375Y-57644056D01*
X100570009Y-57644734D01*
G37*
G36*
X93235085Y-57644833D02*
G01*
X93242569Y-57656033D01*
X94302948Y-58716412D01*
X94314040Y-58723824D01*
X94314925Y-58725357D01*
X94314247Y-58726991D01*
X94312538Y-58727448D01*
X94296324Y-58724212D01*
X94203277Y-58817242D01*
X94206519Y-58833503D01*
X94206062Y-58835212D01*
X94204428Y-58835890D01*
X94202895Y-58835005D01*
X94195469Y-58823892D01*
X93135090Y-57763513D01*
X93123912Y-57756044D01*
X93123027Y-57754512D01*
X93123704Y-57752877D01*
X93125413Y-57752419D01*
X93141758Y-57755667D01*
X93234715Y-57662727D01*
X93231460Y-57646334D01*
X93231919Y-57644625D01*
X93233553Y-57643948D01*
X93235085Y-57644833D01*
G37*
G36*
X100004308Y-57079071D02*
G01*
X100004765Y-57080781D01*
X100001542Y-57096914D01*
X100094472Y-57189972D01*
X100110946Y-57186703D01*
X100112654Y-57187162D01*
X100113331Y-57188796D01*
X100112446Y-57190328D01*
X100101224Y-57197827D01*
X99040845Y-58258206D01*
X99033361Y-58269407D01*
X99031829Y-58270292D01*
X99030195Y-58269615D01*
X99029736Y-58267906D01*
X99032997Y-58251481D01*
X98939958Y-58158533D01*
X98923775Y-58161763D01*
X98922066Y-58161306D01*
X98921388Y-58159672D01*
X98922273Y-58158139D01*
X98933365Y-58150727D01*
X99993744Y-57090348D01*
X100001141Y-57079278D01*
X100002674Y-57078393D01*
X100004308Y-57079071D01*
G37*
G36*
X93800786Y-57079170D02*
G01*
X93808255Y-57090348D01*
X94868634Y-58150727D01*
X94879747Y-58158153D01*
X94880632Y-58159686D01*
X94879954Y-58161320D01*
X94878245Y-58161777D01*
X94861984Y-58158535D01*
X94768954Y-58251582D01*
X94772190Y-58267796D01*
X94771733Y-58269505D01*
X94770099Y-58270183D01*
X94768566Y-58269298D01*
X94761154Y-58258206D01*
X93700775Y-57197827D01*
X93689575Y-57190343D01*
X93688690Y-57188811D01*
X93689367Y-57187177D01*
X93691076Y-57186718D01*
X93707469Y-57189973D01*
X93800409Y-57097016D01*
X93797161Y-57080671D01*
X93797619Y-57078962D01*
X93799254Y-57078285D01*
X93800786Y-57079170D01*
G37*
G36*
X99438622Y-56513387D02*
G01*
X99439079Y-56515097D01*
X99435855Y-56531236D01*
X99528804Y-56624296D01*
X99545237Y-56621033D01*
X99546946Y-56621492D01*
X99547623Y-56623126D01*
X99546738Y-56624658D01*
X99535538Y-56632142D01*
X98475159Y-57692521D01*
X98467675Y-57703721D01*
X98466143Y-57704606D01*
X98464509Y-57703929D01*
X98464050Y-57702220D01*
X98467313Y-57685787D01*
X98374253Y-57592838D01*
X98358114Y-57596062D01*
X98356404Y-57595605D01*
X98355726Y-57593971D01*
X98356611Y-57592438D01*
X98367680Y-57585042D01*
X99428059Y-56524663D01*
X99435455Y-56513594D01*
X99436988Y-56512709D01*
X99438622Y-56513387D01*
G37*
G36*
X94366471Y-56513485D02*
G01*
X94373940Y-56524663D01*
X95434319Y-57585042D01*
X95445411Y-57592454D01*
X95446296Y-57593987D01*
X95445618Y-57595621D01*
X95443909Y-57596078D01*
X95427687Y-57592840D01*
X95334638Y-57685889D01*
X95337876Y-57702111D01*
X95337419Y-57703820D01*
X95335785Y-57704498D01*
X95334252Y-57703613D01*
X95326840Y-57692521D01*
X94266461Y-56632142D01*
X94255283Y-56624673D01*
X94254398Y-56623141D01*
X94255075Y-56621506D01*
X94256784Y-56621048D01*
X94273137Y-56624298D01*
X94366096Y-56531339D01*
X94362846Y-56514986D01*
X94363304Y-56513277D01*
X94364939Y-56512600D01*
X94366471Y-56513485D01*
G37*
G36*
X98872953Y-55947678D02*
G01*
X98873410Y-55949387D01*
X98870180Y-55965570D01*
X98963128Y-56058609D01*
X98979553Y-56055348D01*
X98981262Y-56055807D01*
X98981939Y-56057441D01*
X98981054Y-56058973D01*
X98969853Y-56066457D01*
X97909474Y-57126836D01*
X97901975Y-57138058D01*
X97900443Y-57138943D01*
X97898809Y-57138266D01*
X97898350Y-57136558D01*
X97901619Y-57120084D01*
X97808561Y-57027154D01*
X97792428Y-57030377D01*
X97790718Y-57029920D01*
X97790040Y-57028286D01*
X97790925Y-57026753D01*
X97801995Y-57019356D01*
X98862374Y-55958977D01*
X98869786Y-55947885D01*
X98871319Y-55947000D01*
X98872953Y-55947678D01*
G37*
G36*
X94932141Y-55947777D02*
G01*
X94939625Y-55958977D01*
X96000004Y-57019356D01*
X96011096Y-57026768D01*
X96011981Y-57028301D01*
X96011303Y-57029935D01*
X96009594Y-57030392D01*
X95993380Y-57027156D01*
X95900333Y-57120186D01*
X95903575Y-57136447D01*
X95903118Y-57138156D01*
X95901484Y-57138834D01*
X95899951Y-57137949D01*
X95892525Y-57126836D01*
X94832146Y-56066457D01*
X94820968Y-56058988D01*
X94820083Y-56057456D01*
X94820760Y-56055821D01*
X94822469Y-56055363D01*
X94838814Y-56058611D01*
X94931771Y-55965671D01*
X94928516Y-55949278D01*
X94928975Y-55947569D01*
X94930609Y-55946892D01*
X94932141Y-55947777D01*
G37*
G36*
X98934411Y-43047817D02*
G01*
X98934869Y-43049526D01*
X98932250Y-43062699D01*
X98932250Y-45312301D01*
X98934869Y-45325470D01*
X98934411Y-45327179D01*
X98932776Y-45327856D01*
X98931244Y-45326971D01*
X98896994Y-45275713D01*
X98765506Y-45275713D01*
X98731255Y-45326970D01*
X98729723Y-45327855D01*
X98728088Y-45327178D01*
X98727630Y-45325469D01*
X98730250Y-45312301D01*
X98730250Y-43062699D01*
X98727630Y-43049528D01*
X98728088Y-43047819D01*
X98729723Y-43047142D01*
X98731255Y-43048027D01*
X98765507Y-43099286D01*
X98896993Y-43099286D01*
X98931244Y-43048025D01*
X98932776Y-43047140D01*
X98934411Y-43047817D01*
G37*
G36*
X98134411Y-43047817D02*
G01*
X98134869Y-43049526D01*
X98132250Y-43062699D01*
X98132250Y-45312301D01*
X98134869Y-45325470D01*
X98134411Y-45327179D01*
X98132776Y-45327856D01*
X98131244Y-45326971D01*
X98096994Y-45275713D01*
X97965506Y-45275713D01*
X97931255Y-45326970D01*
X97929723Y-45327855D01*
X97928088Y-45327178D01*
X97927630Y-45325469D01*
X97930250Y-45312301D01*
X97930250Y-43062699D01*
X97927630Y-43049528D01*
X97928088Y-43047819D01*
X97929723Y-43047142D01*
X97931255Y-43048027D01*
X97965507Y-43099286D01*
X98096993Y-43099286D01*
X98131244Y-43048025D01*
X98132776Y-43047140D01*
X98134411Y-43047817D01*
G37*
G36*
X97334411Y-43047817D02*
G01*
X97334869Y-43049526D01*
X97332250Y-43062699D01*
X97332250Y-45312301D01*
X97334869Y-45325470D01*
X97334411Y-45327179D01*
X97332776Y-45327856D01*
X97331244Y-45326971D01*
X97296994Y-45275713D01*
X97165506Y-45275713D01*
X97131255Y-45326970D01*
X97129723Y-45327855D01*
X97128088Y-45327178D01*
X97127630Y-45325469D01*
X97130250Y-45312301D01*
X97130250Y-43062699D01*
X97127630Y-43049528D01*
X97128088Y-43047819D01*
X97129723Y-43047142D01*
X97131255Y-43048027D01*
X97165507Y-43099286D01*
X97296993Y-43099286D01*
X97331244Y-43048025D01*
X97332776Y-43047140D01*
X97334411Y-43047817D01*
G37*
G36*
X96534411Y-43047817D02*
G01*
X96534869Y-43049526D01*
X96532250Y-43062699D01*
X96532250Y-45312301D01*
X96534869Y-45325470D01*
X96534411Y-45327179D01*
X96532776Y-45327856D01*
X96531244Y-45326971D01*
X96496994Y-45275713D01*
X96365506Y-45275713D01*
X96331255Y-45326970D01*
X96329723Y-45327855D01*
X96328088Y-45327178D01*
X96327630Y-45325469D01*
X96330250Y-45312301D01*
X96330250Y-43062699D01*
X96327630Y-43049528D01*
X96328088Y-43047819D01*
X96329723Y-43047142D01*
X96331255Y-43048027D01*
X96365507Y-43099286D01*
X96496993Y-43099286D01*
X96531244Y-43048025D01*
X96532776Y-43047140D01*
X96534411Y-43047817D01*
G37*
M02*
