M48
; DRILL file {KiCad 7.0.1} date Tue Apr 11 18:09:47 2023
; FORMAT={-:-/ absolute / inch / decimal}
; #@! TF.CreationDate,2023-04-11T18:09:47-04:00
; #@! TF.GenerationSoftware,Kicad,Pcbnew,7.0.1
; #@! TF.FileFunction,Plated,1,2,PTH
FMAT,2
INCH
; #@! TA.AperFunction,Plated,PTH,ViaDrill
T1C0.0157
; #@! TA.AperFunction,Plated,PTH,ComponentDrill
T2C0.0276
; #@! TA.AperFunction,Plated,PTH,ComponentDrill
T3C0.0409
; #@! TA.AperFunction,Plated,PTH,ComponentDrill
T4C0.0579
%
G90
G05
T1
X3.5812Y-2.7875
X3.7064Y-3.2045
X3.719Y-2.4919
X3.7546Y-2.6339
X3.7557Y-2.0529
X3.7594Y-2.6791
X3.7812Y-2.3875
X3.7964Y-2.2613
X3.8688Y-1.9763
X3.8713Y-1.8326
X3.8751Y-2.9375
X4.0812Y-2.6375
X4.0986Y-2.4741
X4.1458Y-2.5156
X4.2263Y-3.175
X4.3021Y-1.7479
X4.409Y-1.9508
X4.5221Y-1.7945
X4.5615Y-1.6998
X4.5649Y-1.8376
X4.5775Y-3.3029
X4.5812Y-3.2469
X4.5874Y-2.7296
X4.5923Y-2.0098
X4.6144Y-2.0652
X4.6562Y-1.8536
X4.6562Y-2.1506
X4.6562Y-2.375
X4.6575Y-2.5709
X4.6812Y-3.1375
X4.7227Y-1.7785
X4.7239Y-1.8708
T3
X3.368Y-2.318
X3.3684Y-3.065
X3.468Y-2.318
X3.4684Y-3.065
X4.115Y-2.315
X4.115Y-3.065
X4.215Y-2.315
X4.215Y-3.065
T4
X3.268Y-2.018
X3.2684Y-2.765
X3.3195Y-1.9605
X3.32Y-2.7075
X3.5164Y-1.9408
X3.5169Y-2.6878
X3.518Y-1.918
X3.5184Y-2.665
X4.015Y-2.015
X4.015Y-2.765
X4.0666Y-1.9575
X4.0666Y-2.7075
X4.2634Y-1.9378
X4.2634Y-2.6878
X4.265Y-1.915
X4.265Y-2.665
T2
G00X3.7Y-1.5389
M15
G01X3.7Y-1.5861
M16
G05
G00X3.7Y-1.716
M15
G01X3.7Y-1.7633
M16
G05
G00X3.9875Y-1.5389
M15
G01X3.9875Y-1.5861
M16
G05
G00X3.9875Y-1.716
M15
G01X3.9875Y-1.7633
M16
G05
T0
M30
