G04 #@! TF.GenerationSoftware,KiCad,Pcbnew,7.0.1*
G04 #@! TF.CreationDate,2023-04-11T18:09:49-04:00*
G04 #@! TF.ProjectId,pikas-pcbs,70696b61-732d-4706-9362-732e6b696361,rev?*
G04 #@! TF.SameCoordinates,Original*
G04 #@! TF.FileFunction,Copper,L1,Top*
G04 #@! TF.FilePolarity,Positive*
%FSLAX46Y46*%
G04 Gerber Fmt 4.6, Leading zero omitted, Abs format (unit mm)*
G04 Created by KiCad (PCBNEW 7.0.1) date 2023-04-11 18:09:49*
%MOMM*%
%LPD*%
G01*
G04 APERTURE LIST*
G04 Aperture macros list*
%AMHorizOval*
0 Thick line with rounded ends*
0 $1 width*
0 $2 $3 position (X,Y) of the first rounded end (center of the circle)*
0 $4 $5 position (X,Y) of the second rounded end (center of the circle)*
0 Add line between two ends*
20,1,$1,$2,$3,$4,$5,0*
0 Add two circle primitives to create the rounded ends*
1,1,$1,$2,$3*
1,1,$1,$4,$5*%
G04 Aperture macros list end*
G04 #@! TA.AperFunction,ComponentPad*
%ADD10HorizOval,2.250000X0.655001X0.730000X-0.655001X-0.730000X0*%
G04 #@! TD*
G04 #@! TA.AperFunction,ComponentPad*
%ADD11C,2.250000*%
G04 #@! TD*
G04 #@! TA.AperFunction,ComponentPad*
%ADD12HorizOval,2.250000X0.020000X0.290000X-0.020000X-0.290000X0*%
G04 #@! TD*
G04 #@! TA.AperFunction,ComponentPad*
%ADD13C,1.905000*%
G04 #@! TD*
G04 #@! TA.AperFunction,ComponentPad*
%ADD14R,1.905000X1.905000*%
G04 #@! TD*
G04 #@! TA.AperFunction,ComponentPad*
%ADD15HorizOval,2.250000X0.655001X0.730000X-0.655001X-0.730000X0*%
G04 #@! TD*
G04 #@! TA.AperFunction,ComponentPad*
%ADD16O,1.700000X2.700000*%
G04 #@! TD*
G04 #@! TA.AperFunction,ViaPad*
%ADD17C,0.800000*%
G04 #@! TD*
G04 #@! TA.AperFunction,Conductor*
%ADD18C,0.254000*%
G04 #@! TD*
G04 #@! TA.AperFunction,Conductor*
%ADD19C,0.381000*%
G04 #@! TD*
G04 APERTURE END LIST*
D10*
X102636001Y-50451000D03*
D11*
X103291000Y-49721000D03*
D12*
X108311000Y-48931000D03*
D11*
X108331000Y-48641000D03*
D13*
X104521000Y-58801000D03*
D14*
X107061000Y-58801000D03*
D15*
X83673001Y-69501000D03*
D11*
X84328000Y-68771000D03*
D12*
X89348000Y-67981000D03*
D11*
X89368000Y-67691000D03*
D13*
X85558000Y-77851000D03*
D14*
X88098000Y-77851000D03*
D10*
X102636001Y-69501000D03*
D11*
X103291000Y-68771000D03*
D12*
X108311000Y-67981000D03*
D11*
X108331000Y-67691000D03*
D13*
X104521000Y-77851000D03*
D14*
X107061000Y-77851000D03*
D10*
X83661002Y-50526001D03*
D11*
X84316001Y-49796001D03*
D12*
X89336001Y-49006001D03*
D11*
X89356001Y-48716001D03*
D13*
X85546001Y-58876001D03*
D14*
X88086001Y-58876001D03*
D16*
X93981250Y-44187500D03*
X101281250Y-44187500D03*
X93981250Y-39687500D03*
X101281250Y-39687500D03*
D17*
X118903750Y-79692500D03*
X109272635Y-44397635D03*
X114862500Y-45581250D03*
X115947500Y-46675000D03*
X116363750Y-82471500D03*
X118268750Y-60325000D03*
X118268750Y-54625000D03*
X118268750Y-47081250D03*
X116518750Y-69331250D03*
X119987500Y-47518750D03*
X119956250Y-45175000D03*
X115862500Y-43175000D03*
X116643750Y-51050000D03*
X111987500Y-49550000D03*
X94463250Y-63293000D03*
X95366764Y-66901836D03*
X98268750Y-50198500D03*
X98330750Y-46548128D03*
X96427924Y-57437452D03*
X95487500Y-68050000D03*
X95393750Y-52143750D03*
X117206250Y-52456250D03*
X105302249Y-63895999D03*
X104103750Y-62841269D03*
X118300000Y-65300000D03*
X116268750Y-83893750D03*
X96043750Y-60642500D03*
X103663750Y-66992500D03*
X94143750Y-81393750D03*
X90963750Y-70802500D03*
X107346750Y-80645000D03*
X98428366Y-74612500D03*
D18*
X118903750Y-65903750D02*
X118300000Y-65300000D01*
X118903750Y-79692500D02*
X118903750Y-65903750D01*
D19*
X109272635Y-44397635D02*
X115925000Y-51050000D01*
X115925000Y-51050000D02*
X116643750Y-51050000D01*
X114862500Y-45590000D02*
X115947500Y-46675000D01*
X114862500Y-45581250D02*
X114862500Y-45590000D01*
X116518750Y-82316500D02*
X116363750Y-82471500D01*
X116518750Y-66550000D02*
X116518750Y-82316500D01*
X116518750Y-66550000D02*
X116518750Y-62737500D01*
X116518750Y-69331250D02*
X116518750Y-66550000D01*
X116518750Y-62737500D02*
X116518750Y-62075000D01*
X116518750Y-62737500D02*
X116518750Y-54261686D01*
X116518750Y-62075000D02*
X118268750Y-60325000D01*
X118268750Y-52511686D02*
X118268750Y-54625000D01*
X118268750Y-52511686D02*
X118268750Y-47081250D01*
X116518750Y-54261686D02*
X118268750Y-52511686D01*
X119956250Y-47487500D02*
X119987500Y-47518750D01*
X119956250Y-45175000D02*
X119956250Y-47487500D01*
X116737500Y-50956250D02*
X116643750Y-51050000D01*
D18*
X110826561Y-50710939D02*
X111987500Y-49550000D01*
X105448102Y-50710939D02*
X110826561Y-50710939D01*
X103420100Y-52738941D02*
X105448102Y-50710939D01*
X103420100Y-52925000D02*
X103420100Y-52738941D01*
X97688405Y-54973000D02*
X101372100Y-54973000D01*
X101372100Y-54973000D02*
X103420100Y-52925000D01*
X94463250Y-58198155D02*
X97688405Y-54973000D01*
X94463250Y-63293000D02*
X94463250Y-58198155D01*
X95316750Y-66851822D02*
X95366764Y-66901836D01*
X95316750Y-58548626D02*
X95316750Y-66851822D01*
X96427924Y-57437452D02*
X95316750Y-58548626D01*
X98330750Y-46548128D02*
X98268750Y-46610128D01*
X98268750Y-46610128D02*
X98268750Y-50198500D01*
X93612500Y-66175000D02*
X95487500Y-68050000D01*
X95393750Y-52143750D02*
X93612500Y-53925000D01*
X93612500Y-53925000D02*
X93612500Y-66175000D01*
X99405560Y-73236155D02*
X94143750Y-73236155D01*
X101229595Y-74023000D02*
X100192405Y-74023000D01*
X100192405Y-74023000D02*
X99405560Y-73236155D01*
X101963000Y-73289595D02*
X101229595Y-74023000D01*
X101963000Y-72949500D02*
X101963000Y-73289595D01*
X106518750Y-68393750D02*
X101963000Y-72949500D01*
X106518750Y-63143750D02*
X106518750Y-68393750D01*
X117206250Y-52456250D02*
X106518750Y-63143750D01*
X104247519Y-62841269D02*
X105302249Y-63895999D01*
X104103750Y-62841269D02*
X104247519Y-62841269D01*
X100893250Y-52268750D02*
X101981000Y-51181000D01*
X100675000Y-52268750D02*
X100893250Y-52268750D01*
X87297959Y-50925000D02*
X99331250Y-50925000D01*
X99331250Y-50925000D02*
X100675000Y-52268750D01*
X86168960Y-49796001D02*
X87297959Y-50925000D01*
X84316001Y-49796001D02*
X86168960Y-49796001D01*
X101981000Y-70081000D02*
X103291000Y-68771000D01*
X101981000Y-70231000D02*
X101981000Y-70081000D01*
X100693000Y-71519000D02*
X101981000Y-70231000D01*
X100192405Y-71519000D02*
X100693000Y-71519000D01*
X99387750Y-70714345D02*
X100192405Y-71519000D01*
X99387750Y-70075500D02*
X99387750Y-70714345D01*
X85632500Y-70075500D02*
X99387750Y-70075500D01*
X84328000Y-68771000D02*
X85632500Y-70075500D01*
X83018000Y-70081000D02*
X84328000Y-68771000D01*
X83018000Y-70231000D02*
X83018000Y-70081000D01*
X97313750Y-60642500D02*
X96043750Y-60642500D01*
X103663750Y-66992500D02*
X97313750Y-60642500D01*
X94143750Y-74364250D02*
X94143750Y-81393750D01*
X94143750Y-73236155D02*
X94143750Y-74364250D01*
X91710095Y-70802500D02*
X94143750Y-73236155D01*
X90963750Y-70802500D02*
X91710095Y-70802500D01*
D19*
X104460866Y-80645000D02*
X107346750Y-80645000D01*
X98428366Y-74612500D02*
X104460866Y-80645000D01*
M02*
